<?xml version="1.0" standalone="no"?>
<!DOCTYPE svg PUBLIC "-//W3C//DTD SVG 20010904//EN"
 "http://www.w3.org/TR/2001/REC-SVG-20010904/DTD/svg10.dtd">
<svg version="1.0" xmlns="http://www.w3.org/2000/svg"
 width="920.000000pt" height="371.000000pt" viewBox="0 0 920.000000 371.000000"
 preserveAspectRatio="xMidYMid meet">

<g transform="translate(0.000000,371.000000) scale(0.100000,-0.100000)"
fill="#fff" stroke="none">
<path d="M0 1860 l0 -1850 4600 0 4600 0 0 1850 0 1850 -4600 0 -4600 0 0
-1850z m1000 1556 c0 -3 14 -92 30 -198 47 -297 147 -939 182 -1170 18 -114
34 -205 36 -203 5 4 83 483 197 1205 14 91 34 210 43 265 l17 100 357 3 358 2
2 -1406 3 -1406 38 258 c21 143 48 331 62 419 13 88 80 538 150 1000 69 462
136 905 148 985 l23 145 371 3 371 2 5 -22 c3 -13 61 -387 127 -833 67 -445
157 -1042 200 -1325 l78 -515 1 870 c1 479 4 1084 7 1345 l6 475 332 0 c362
-1 412 -6 552 -56 180 -66 361 -220 459 -391 32 -55 32 -52 -4 222 -16 118
-25 218 -22 223 4 4 133 6 286 5 l279 -3 18 -130 c9 -71 33 -247 52 -390 19
-143 67 -492 105 -775 83 -613 76 -569 83 -550 3 8 25 157 48 330 23 173 53
396 66 495 14 99 51 369 83 600 l57 420 790 0 789 0 3 -282 2 -283 -252 -2
-253 -3 -3 -347 -2 -348 252 -2 253 -3 3 -282 2 -283 -255 0 -255 0 0 -355 0
-355 255 0 255 0 0 -280 0 -280 -535 0 -535 0 -1 1378 c-1 1206 -3 1366 -15
1292 -17 -108 -30 -190 -104 -655 -33 -209 -67 -420 -75 -470 -14 -89 -51
-321 -80 -505 -8 -52 -26 -165 -40 -250 -13 -85 -43 -270 -65 -410 -52 -334
-59 -372 -62 -375 -2 -2 -149 -4 -328 -6 l-324 -4 -9 45 c-5 25 -78 454 -162
955 -84 501 -154 888 -154 862 -2 -120 -56 -289 -133 -416 -48 -80 -129 -181
-169 -210 -16 -12 -29 -27 -29 -35 0 -11 315 -1094 340 -1168 l9 -28 -278 0
-278 0 -47 178 c-25 97 -71 271 -101 387 -96 368 -118 450 -121 454 -1 2 -30
0 -63 -4 l-61 -7 0 -504 0 -504 -535 0 -535 0 -4 22 c-3 13 -18 119 -33 236
l-28 214 -215 -2 c-118 0 -216 -2 -217 -4 -2 -2 -12 -68 -23 -147 -11 -79 -25
-183 -32 -231 l-12 -88 -543 0 -543 0 -1 728 -1 727 -38 -225 c-21 -124 -75
-443 -120 -710 -44 -267 -83 -493 -86 -502 -5 -16 -21 -18 -154 -18 l-148 0
-6 28 c-3 15 -24 133 -46 262 -100 586 -183 1069 -190 1110 -4 25 -8 -280 -9
-677 l-1 -723 -285 0 -285 0 0 1548 c0 852 3 1552 7 1555 7 8 713 10 713 3z
m7440 -1271 l0 -1275 240 0 240 0 0 -280 0 -280 -520 0 -520 0 0 1555 0 1555
280 0 280 0 0 -1275z"/>
<path d="M4370 2360 l0 -502 38 7 c105 19 209 100 262 204 51 102 64 164 64
301 0 138 -17 221 -62 303 -49 91 -156 165 -259 182 l-43 7 0 -502z"/>
<path d="M3010 2531 c0 -19 -11 -129 -25 -245 -63 -530 -115 -983 -115 -994 0
-9 42 -12 155 -12 l156 0 -6 33 c-3 17 -23 183 -45 367 -22 184 -49 407 -60
495 -10 88 -25 207 -31 265 -12 103 -29 157 -29 91z"/>
</g>
</svg>
